# Exported from Wings 3D 2.2.6.1
mtllib ./alen.mtl
o Cylinder2
#32 vertices, 60 faces
v 0.37000000 3.1373021e-18 1.5540000e-2
v 0.34183543 -0.14159287 1.5540000e-2
v 0.26162951 -0.26162951 1.5540000e-2
v 0.14159287 -0.34183543 1.5540000e-2
v -5.7588048e-18 -0.37000000 1.5540000e-2
v -0.14159287 -0.34183543 1.5540000e-2
v -0.26162951 -0.26162951 1.5540000e-2
v -0.34183543 -0.14159287 1.5540000e-2
v -0.37000000 -4.2174629e-17 1.5540000e-2
v -0.34183543 0.14159287 1.5540000e-2
v -0.26162951 0.26162951 1.5540000e-2
v -0.14159287 0.34183543 1.5540000e-2
v -9.6382668e-17 0.37000000 1.5540000e-2
v 0.14159287 0.34183543 1.5540000e-2
v 0.26162951 0.26162951 1.5540000e-2
v 0.34183543 0.14159287 1.5540000e-2
v 0.37000000 1.2342010e-18 -1.5540000e-2
v 0.34183543 -0.14159287 -1.5540000e-2
v 0.26162951 -0.26162951 -1.5540000e-2
v 0.14159287 -0.34183543 -1.5540000e-2
v -5.7588048e-18 -0.37000000 -1.5540000e-2
v -0.14159287 -0.34183543 -1.5540000e-2
v -0.26162951 -0.26162951 -1.5540000e-2
v -0.34183543 -0.14159287 -1.5540000e-2
v -0.37000000 -4.4077731e-17 -1.5540000e-2
v -0.34183543 0.14159287 -1.5540000e-2
v -0.26162951 0.26162951 -1.5540000e-2
v -0.14159287 0.34183543 -1.5540000e-2
v -9.6382668e-17 0.37000000 -1.5540000e-2
v 0.14159287 0.34183543 -1.5540000e-2
v 0.26162951 0.26162951 -1.5540000e-2
v 0.34183543 0.14159287 -1.5540000e-2
vt 1.8000000e-2 0.50000000
vt 5.4000000e-2 0.50000000
vt 5.4690065e-2 0.68445341
vt 5.4690065e-2 0.31554659
vt 8.7949728e-2 0.32932319
vt 8.7949728e-2 0.67067681
vt 0.15917453 0.84082547
vt 0.15917453 0.15917453
vt 0.18463038 0.18463038
vt 0.18463038 0.81536962
vt 0.30728889 5.7344444e-2
vt 0.30728889 9.9344444e-2
vt 0.31554659 0.94530993
vt 0.31554659 5.4690065e-2
vt 0.32198014 5.7344444e-2
vt 0.32198014 9.9344444e-2
vt 0.32198014 5.7344444e-2
vt 0.32198014 9.9344444e-2
vt 0.32932319 0.91205027
vt 0.32932319 8.7949728e-2
vt 0.36381728 5.7344444e-2
vt 0.36381728 9.9344444e-2
vt 0.36381728 5.7344444e-2
vt 0.36381728 9.9344444e-2
vt 0.42643099 5.7344444e-2
vt 0.42643099 9.9344444e-2
vt 0.42643099 5.7344444e-2
vt 0.42643099 9.9344444e-2
vt 0.50000000 0.98200000
vt 0.50000000 1.8000000e-2
vt 0.50000000 5.4000000e-2
vt 0.50000000 0.94600000
vt 0.50028889 5.7344444e-2
vt 0.50028889 9.9344444e-2
vt 0.50028889 5.7344444e-2
vt 0.50028889 9.9344444e-2
vt 0.57414679 5.7344444e-2
vt 0.57414679 9.9344444e-2
vt 0.57414679 5.7344444e-2
vt 0.57414679 9.9344444e-2
vt 0.63676050 5.7344444e-2
vt 0.63676050 9.9344444e-2
vt 0.63676050 5.7344444e-2
vt 0.63676050 9.9344444e-2
vt 0.67067681 8.7949728e-2
vt 0.67067681 0.91205027
vt 0.67859764 5.7344444e-2
vt 0.67859764 9.9344444e-2
vt 0.67859764 5.7344444e-2
vt 0.67859764 9.9344444e-2
vt 0.68445341 5.4690065e-2
vt 0.68445341 0.94530993
vt 0.69328889 5.7344444e-2
vt 0.69328889 9.9344444e-2
vt 0.81536962 0.18463038
vt 0.81536962 0.81536962
vt 0.84082547 0.15917453
vt 0.84082547 0.84082547
vt 0.91205027 0.32932319
vt 0.91205027 0.67067681
vt 0.94530993 0.68445341
vt 0.94530993 0.31554659
vt 0.94600000 0.50000000
vt 0.98200000 0.50000000
vn 0.89090915 7.4375815e-16 0.45418155
vn 0.82309273 -0.34093617 0.45418155
vn 0.38696817 -0.38696817 0.83696551
vn 0.30398942 -0.73389537 0.60744384
vn -7.7434865e-18 -0.54725564 0.83696551
vn -0.30398942 -0.73389537 0.60744384
vn -0.38696817 -0.38696817 0.83696551
vn -0.73389537 -0.30398942 0.60744384
vn -0.89090915 5.0424281e-16 0.45418155
vn -0.82309273 0.34093617 0.45418155
vn -0.38696817 0.38696817 0.83696551
vn -0.30398942 0.73389537 0.60744384
vn -1.1615230e-16 0.54725564 0.83696551
vn 0.30398942 0.73389537 0.60744384
vn 0.38696817 0.38696817 0.83696551
vn 0.73389537 0.30398942 0.60744384
vn 0.96901550 2.9479186e-16 -0.24699991
vn 0.50559828 -0.20942567 -0.83696551
vn 0.56169920 -0.56169920 -0.60744384
vn 0.20942567 -0.50559828 -0.83696551
vn 0.0000000e+0 -0.79436263 -0.60744384
vn -0.20942567 -0.50559828 -0.83696551
vn -0.56169920 -0.56169920 -0.60744384
vn -0.64691385 -0.26796049 -0.71393252
vn -0.96901550 -1.4396812e-16 -0.24699991
vn -0.50559828 0.20942567 -0.83696551
vn -0.56169920 0.56169920 -0.60744384
vn -0.20942567 0.50559828 -0.83696551
vn -1.6859953e-16 0.79436263 -0.60744384
vn 0.20942567 0.50559828 -0.83696551
vn 0.56169920 0.56169920 -0.60744384
vn 0.64691385 0.26796049 -0.71393252
g Cylinder2_Cylinder2_auv
usemtl Cylinder2_auv
s 1
f 1/64/1 16/61/16 2/62/2
f 1/22/1 17/21/17 16/16/16
f 2/62/2 16/61/16 3/57/3
f 2/26/2 17/21/17 1/22/1
f 2/26/2 19/33/19 18/25/18
f 3/57/3 15/58/15 4/51/4
f 3/34/3 19/33/19 2/26/2
f 4/51/4 14/52/14 5/30/5
f 4/38/4 19/33/19 3/34/3
f 4/38/4 21/41/21 20/37/20
f 5/30/5 13/29/13 6/14/6
f 5/42/5 21/41/21 4/38/4
f 6/14/6 12/13/12 7/8/7
f 6/48/6 21/41/21 5/42/5
f 6/48/6 23/53/23 22/47/22
f 7/8/7 11/7/11 8/4/8
f 7/54/7 23/53/23 6/48/6
f 8/4/8 10/3/10 9/1/9
f 8/50/8 23/53/23 7/54/7
f 8/50/8 25/43/25 24/49/24
f 9/44/9 25/43/25 8/50/8
f 10/3/10 8/4/8 11/7/11
f 10/40/10 25/43/25 9/44/9
f 10/40/10 27/35/27 26/39/26
f 11/7/11 7/8/7 12/13/12
f 11/36/11 27/35/27 10/40/10
f 12/13/12 6/14/6 13/29/13
f 12/28/12 27/35/27 11/36/11
f 12/28/12 29/23/29 28/27/28
f 13/29/13 5/30/5 14/52/14
f 13/24/13 29/23/29 12/28/12
f 14/52/14 4/51/4 15/58/15
f 14/18/14 29/23/29 13/24/13
f 14/18/14 31/11/31 30/17/30
f 15/58/15 3/57/3 16/61/16
f 15/12/15 31/11/31 14/18/14
f 16/16/16 17/21/17 32/15/32
f 16/16/16 31/11/31 15/12/15
f 18/25/18 17/21/17 2/26/2
f 18/5/18 32/6/32 17/2/17
f 19/9/19 31/10/31 18/5/18
f 20/37/20 19/33/19 4/38/4
f 20/20/20 30/19/30 19/9/19
f 21/31/21 29/32/29 20/20/20
f 22/47/22 21/41/21 6/48/6
f 22/45/22 28/46/28 21/31/21
f 23/55/23 27/56/27 22/45/22
f 24/49/24 23/53/23 8/50/8
f 24/59/24 26/60/26 23/55/23
f 25/63/25 26/60/26 24/59/24
f 26/39/26 25/43/25 10/40/10
f 27/56/27 23/55/23 26/60/26
f 28/46/28 22/45/22 27/56/27
f 28/27/28 27/35/27 12/28/12
f 29/32/29 21/31/21 28/46/28
f 30/19/30 20/20/20 29/32/29
f 30/17/30 29/23/29 14/18/14
f 31/10/31 19/9/19 30/19/30
f 32/6/32 18/5/18 31/10/31
f 32/15/32 31/11/31 16/16/16
