# Exported from Wings 3D 2.2.6.1
mtllib ./plain2.mtl
o Cube1
#30 vertices, 56 faces
v 0.47115659 -3.6687955e-2 8.5766411e-2
v -8.5806534e-3 -0.98817021 4.3262217e-2
v 0.47115659 -3.6687955e-2 8.5596734e-2
v -8.5806534e-3 -0.98817021 0.12810093
v 0.48495550 -0.98817021 0.19522016
v 0.48495550 -3.6687955e-2 8.5596734e-2
v 0.48495550 -0.98817021 -2.3857016e-2
v 0.48495550 -3.6687955e-2 8.5766411e-2
v 0.48495550 -0.51242908 3.0954698e-2
v 0.48495550 -0.51242908 0.14040845
v 0.24067688 -0.51242908 9.0146255e-2
v 0.24067688 -0.51242908 8.1216890e-2
v 0.23818742 -0.98817021 0.16166054
v 0.11480339 -0.98817021 0.14488074
v -1.0107989e-2 -0.98817021 4.3262217e-2
v -1.0107989e-2 -0.98817021 0.12810093
v 8.1766030e-2 -0.51242908 9.0146255e-2
v 8.1766030e-2 -0.51242908 8.1216890e-2
v 0.49875441 -3.6687955e-2 8.5766411e-2
v 0.97849166 -0.98817021 4.3262217e-2
v 0.49875441 -3.6687955e-2 8.5596734e-2
v 0.97849166 -0.98817021 0.12810093
v 0.72923412 -0.51242908 9.0146255e-2
v 0.72923412 -0.51242908 8.1216890e-2
v 0.73172358 -0.98817021 0.16166054
v 0.85510762 -0.98817021 0.14488074
v 0.98001899 -0.98817021 4.3262217e-2
v 0.98001899 -0.98817021 0.12810093
v 0.88814497 -0.51242908 9.0146255e-2
v 0.88814497 -0.51242908 8.1216890e-2
vt 0.0000000e+0 3.3580678e-2
vt 1.8392427e-2 0.51679034
vt 3.2137098e-2 0.0000000e+0
vt 3.6784855e-2 1.00000000
vt 3.9909267e-2 1.3813414e-2
vt 4.0916337e-2 1.3813414e-2
vt 5.1054113e-2 1.00000000
vt 0.10205209 8.8780612e-2
vt 0.11606043 0.27957244
vt 0.12385096 1.2434338e-2
vt 0.19652111 0.26809981
vt 0.20678557 1.1055263e-2
vt 0.20851650 0.26720522
vt 0.21602141 8.0280999e-2
vt 0.25074051 0.28246132
vt 0.27837064 0.50908603
vt 0.28239354 5.1440989e-3
vt 0.37101688 0.66666378
vt 0.37265481 8.2971119e-3
vt 0.37306287 0.32729711
vt 0.37650427 0.66175267
vt 0.40752177 7.7161483e-3
vt 0.44269812 0.50908603
vt 0.52020474 2.3292480e-2
vt 0.52178414 2.3292480e-2
vt 0.53264999 0.0000000e+0
vt 0.53264999 9.3282008e-3
vt 0.53264999 9.3282008e-3
vt 0.53264999 1.0288198e-2
vt 0.53264999 9.7956281e-2
vt 0.53424555 9.3282008e-3
vt 0.53424555 9.7956281e-2
vt 0.64993192 1.8091361e-2
vt 0.66569514 1.2021480e-2
vt 0.69865869 1.4745150e-17
vt 0.69865869 9.3282008e-3
vt 0.85817849 0.53584228
vt 0.85847803 0.53572694
vn 0.22980592 -0.72767749 -0.64627758
vn -2.3981298e-2 -0.84445921 -0.53508275
vn -9.4280430e-2 -0.36657373 0.92559975
vn -4.9786047e-2 -0.67473750 0.73637671
vn 3.4787010e-16 -0.66918930 0.74309197
vn 2.3802684e-15 -0.88471764 0.46612734
vn -6.6187927e-17 -0.66513571 -0.74672250
vn 1.1169080e-15 -0.66541109 -0.74647712
vn -3.2356301e-16 0.11251767 -0.99364972
vn 4.7429088e-16 0.12176017 0.99255955
vn -0.28048500 0.57769461 0.76654883
vn -0.12664514 0.34300034 -0.93075871
vn -0.11834238 -0.65749155 0.74411017
vn -7.8837456e-2 -0.48182656 0.87271291
vn -0.86592223 -0.23866738 -0.43956407
vn -0.44115260 -0.77768082 0.44788048
vn -0.52331593 0.41838704 0.74235620
vn -0.30365964 0.72637339 -0.61658132
vn -0.22980592 -0.72767749 -0.64627758
vn 2.8097427e-2 -0.77857369 -0.62692387
vn 9.4280430e-2 -0.36657373 0.92559975
vn 3.8884909e-2 -0.81713039 0.57513989
vn 0.31123518 0.42383252 0.85058725
vn 0.11470721 0.52550448 -0.84302271
vn 0.11834238 -0.65749155 0.74411017
vn 7.8837456e-2 -0.48182656 0.87271291
vn 0.73055211 -0.57338146 -0.37084676
vn 0.62199341 -0.46298830 0.63147924
vn 0.46418866 0.59239542 0.65848049
vn 0.37770343 0.51880882 -0.76692733
g Cube1_Cube1_auv
usemtl Cube1_auv
s 1
f 1/7/1 9/2/9 12/16/12
f 2/24/2 12/16/12 7/1/7
f 2/24/2 14/22/14 4/29/4
f 3/18/3 10/20/10 6/21/6
f 3/37/3 12/33/12 11/34/11
f 4/32/4 16/30/16 2/31/2
f 5/3/5 13/17/13 7/1/7
f 5/19/5 25/12/25 10/20/10
f 7/1/7 12/16/12 9/2/9
f 7/1/7 13/17/13 2/24/2
f 7/1/7 24/16/24 20/24/20
f 7/1/7 25/17/25 5/3/5
f 8/4/8 9/2/9 1/7/1
f 8/4/8 19/7/19 9/2/9
f 9/2/9 24/16/24 7/1/7
f 10/20/10 13/12/13 5/19/5
f 10/20/10 21/18/21 6/21/6
f 11/15/11 10/20/10 3/18/3
f 11/15/11 13/12/13 10/20/10
f 12/16/12 2/24/2 18/23/18
f 12/33/12 3/37/3 1/38/1
f 12/26/12 18/35/18 11/27/11
f 13/12/13 11/15/11 14/10/14
f 14/22/14 2/24/2 13/17/13
f 14/10/14 17/9/17 4/6/4
f 15/28/15 2/31/2 16/30/16
f 15/25/15 18/23/18 2/24/2
f 16/5/16 4/6/4 17/9/17
f 16/14/16 17/13/17 15/8/15
f 17/36/17 11/27/11 18/35/18
f 17/9/17 14/10/14 11/15/11
f 18/11/18 15/8/15 17/13/17
f 19/38/19 21/37/21 24/33/24
f 20/24/20 25/17/25 7/1/7
f 20/31/20 27/28/27 22/32/22
f 20/24/20 30/23/30 27/25/27
f 21/18/21 10/20/10 23/15/23
f 22/29/22 26/22/26 20/24/20
f 22/6/22 29/9/29 26/10/26
f 23/34/23 24/33/24 21/37/21
f 23/15/23 26/10/26 29/9/29
f 23/27/23 29/36/29 24/26/24
f 24/16/24 9/2/9 19/7/19
f 25/17/25 20/24/20 26/22/26
f 25/12/25 23/15/23 10/20/10
f 26/10/26 23/15/23 25/12/25
f 27/8/27 29/13/29 28/14/28
f 28/30/28 22/32/22 27/28/27
f 29/9/29 22/6/22 28/5/28
f 29/13/29 27/8/27 30/11/30
f 30/23/30 20/24/20 24/16/24
f 30/35/30 24/26/24 29/36/29
g Cube1_default
usemtl default
s 1
f 1//1 6//6 8//8
f 3//3 6//6 1//1
f 6//6 19//19 8//8
f 19//19 6//6 21//21
