# Exported from Wings 3D 2.2.6.1
mtllib ./wall.mtl
o Cube1
#32 vertices, 60 faces
v -0.13472014 0.46062186 -2.8204955e-17
v -0.13472014 0.14439874 -8.8418730e-18
v -0.13472014 0.46062186 5.1860591e-2
v -0.13472014 0.14439874 5.1860591e-2
v 2.3391422e-2 0.14439874 5.1860591e-2
v 2.3391422e-2 0.46062186 5.1860591e-2
v 2.3391422e-2 0.14439874 -8.8418730e-18
v 2.3391422e-2 0.46062186 -2.8204955e-17
v -0.39344630 0.14439874 -8.8418730e-18
v -0.39344630 0.14439874 5.1860591e-2
v -0.39344630 -0.25291916 5.1860591e-2
v -0.39344630 -0.25291916 1.5486832e-17
v -0.13472014 -0.25291916 1.5486832e-17
v -0.13472014 -0.25291916 5.1860591e-2
v -0.39344630 0.28576313 -1.7497945e-17
v -0.21858757 0.46062186 -2.8204955e-17
v -0.39344630 0.28576313 5.1860591e-2
v -0.21858757 0.46062186 5.1860591e-2
v 0.18150298 0.46062186 -2.8204955e-17
v 0.18150298 0.14439874 -8.8418730e-18
v 0.18150298 0.46062186 5.1860591e-2
v 0.18150298 0.14439874 5.1860591e-2
v 0.44022915 0.14439874 -8.8418730e-18
v 0.44022915 0.14439874 5.1860591e-2
v 0.44022915 -0.25291916 5.1860591e-2
v 0.44022915 -0.25291916 1.5486832e-17
v 0.18150298 -0.25291916 1.5486832e-17
v 0.18150298 -0.25291916 5.1860591e-2
v 0.44022915 0.28576313 -1.7497945e-17
v 0.26537041 0.46062186 -2.8204955e-17
v 0.44022915 0.28576313 5.1860591e-2
v 0.26537041 0.46062186 5.1860591e-2
vt -3.3306691e-16 1.5543122e-15
vt 0.0000000e+0 0.27305646
vt 2.4980018e-16 -4.4408921e-16
vt 7.2164497e-16 0.53744553
vt 1.1934898e-15 0.40072063
vt 2.2877434e-2 0.32754144
vt 0.11235555 0.16860097
vt 0.11286643 0.82502438
vt 0.13466261 0.22270041
vt 0.16807422 0.88493406
vt 0.17064055 4.9960036e-16
vt 0.17085404 0.11421568
vt 0.17224990 0.58150536
vt 0.17780002 0.17820196
vt 0.19286697 0.16811173
vt 0.23698765 0.23264594
vt 0.25948977 4.9960036e-16
vt 0.27410946 1.00000000
vt 0.28100516 0.69564934
vt 0.29842130 0.27850418
vt 0.32106298 0.33434133
vt 0.40892028 0.22976372
vt 0.40986122 0.17138591
vt 0.43192375 0.22681834
vt 0.45231528 2.3185333e-3
vt 0.47359689 5.6505318e-2
vt 0.57248941 0.12318830
vt 0.58636315 1.7287038e-3
vt 0.60752373 5.6505318e-2
vt 0.68125613 0.22519839
vt 0.72558276 0.53510883
vt 0.80529199 0.17508751
vt 0.82696975 0.23229088
vt 0.97923778 0.0000000e+0
vt 1.00000000 0.52414174
vt 1.00000000 5.6505318e-2
vn 0.0000000e+0 0.70710678 -0.70710678
vn 0.16222142 -0.16222142 -0.97332853
vn 0.0000000e+0 0.80000000 0.60000000
vn 0.30151134 -0.30151134 0.90453403
vn 0.0000000e+0 -0.60000000 0.80000000
vn 0.0000000e+0 0.70710678 0.70710678
vn 0.0000000e+0 -0.83205029 -0.55470020
vn 0.0000000e+0 0.70710678 -0.70710678
vn -0.80000000 -1.6216302e-16 -0.60000000
vn -0.70710678 -1.6233903e-16 0.70710678
vn -0.57735027 -0.57735027 0.57735027
vn -0.57735027 -0.57735027 -0.57735027
vn 0.57735027 -0.57735027 -0.57735027
vn 0.57735027 -0.57735027 0.57735027
vn -0.62694312 0.25968834 -0.73450956
vn -0.33655677 0.81251992 -0.47596315
vn -0.81251992 0.33655677 0.47596315
vn -0.25968834 0.62694312 0.73450956
vn 0.0000000e+0 0.83205029 -0.55470020
vn -0.26490647 -0.26490647 -0.92717265
vn 0.0000000e+0 0.70710678 0.70710678
vn -0.19245009 -0.19245009 0.96225045
vn 0.70710678 -1.0387869e-17 -0.70710678
vn 0.80000000 -8.4830970e-17 0.60000000
vn 0.57735027 -0.57735027 0.57735027
vn 0.57735027 -0.57735027 -0.57735027
vn -0.57735027 -0.57735027 -0.57735027
vn -0.57735027 -0.57735027 0.57735027
vn 0.81251992 0.33655677 -0.47596315
vn 0.25968834 0.62694312 -0.73450956
vn 0.62694312 0.25968834 0.73450956
vn 0.33655677 0.81251992 0.47596315
g Cube1_Cube1_auv
usemtl Cube1_auv
s 1
f 1/11/1 8/1/8 2/22/2
f 1/9/1 16/15/16 3/7/3
f 2/24/2 7/21/7 4/23/4
f 2/22/2 8/1/8 7/16/7
f 2/22/2 13/31/13 9/30/9
f 2/22/2 16/17/16 1/11/1
f 3/10/3 5/19/5 6/18/6
f 3/7/3 8/6/8 1/9/1
f 3/7/3 16/15/16 18/12/18
f 3/10/3 18/8/18 4/13/4
f 4/13/4 5/19/5 3/10/3
f 4/23/4 7/21/7 5/20/5
f 4/23/4 13/33/13 2/24/2
f 4/13/4 17/4/17 10/5/10
f 5/19/5 21/10/21 6/18/6
f 6/2/6 8/6/8 3/7/3
f 6/2/6 21/7/21 8/6/8
f 7/21/7 20/24/20 5/20/5
f 8/1/8 20/22/20 7/16/7
f 9/29/9 11/34/11 10/28/10
f 9/29/9 17/25/17 15/26/15
f 10/5/10 11/3/11 4/13/4
f 10/28/10 17/25/17 9/29/9
f 11/34/11 9/29/9 12/36/12
f 12/35/12 9/30/9 13/31/13
f 12/36/12 13/33/13 11/34/11
f 13/33/13 4/23/4 14/32/14
f 14/14/14 4/13/4 11/3/11
f 14/32/14 11/34/11 13/33/13
f 15/27/15 2/22/2 9/30/9
f 16/17/16 2/22/2 15/27/15
f 16/15/16 17/25/17 18/12/18
f 17/4/17 4/13/4 18/8/18
f 17/25/17 16/15/16 15/26/15
f 19/9/19 8/6/8 21/7/21
f 19/11/19 30/17/30 20/22/20
f 19/9/19 32/12/32 30/15/30
f 20/22/20 8/1/8 19/11/19
f 20/24/20 28/32/28 22/23/22
f 21/10/21 5/19/5 22/13/22
f 21/7/21 32/12/32 19/9/19
f 22/23/22 5/20/5 20/24/20
f 22/13/22 28/14/28 24/5/24
f 22/13/22 32/8/32 21/10/21
f 23/30/23 20/22/20 29/27/29
f 23/30/23 26/35/26 20/22/20
f 24/28/24 26/36/26 23/29/23
f 24/5/24 28/14/28 25/3/25
f 24/28/24 29/26/29 31/25/31
f 24/5/24 31/4/31 22/13/22
f 25/34/25 28/32/28 26/36/26
f 26/36/26 24/28/24 25/34/25
f 26/36/26 28/32/28 27/33/27
f 27/31/27 20/22/20 26/35/26
f 28/32/28 20/24/20 27/33/27
f 29/27/29 20/22/20 30/17/30
f 29/26/29 24/28/24 23/29/23
f 29/26/29 32/12/32 31/25/31
f 32/8/32 22/13/22 31/4/31
f 32/12/32 29/26/29 30/15/30
